<svg width="65" height="65" viewBox="0 0 65 65" fill="none" xmlns="http://www.w3.org/2000/svg">
<g clip-path="url(#clip0_447_91)">
<path d="M42.0588 46.8C41.355 46.8 40.7843 47.3821 40.7843 48.1V61.1C40.7843 61.8168 40.2126 62.4 39.5098 62.4H25.4902C24.7874 62.4 24.2157 61.8168 24.2157 61.1V48.1C24.2157 47.3821 23.6451 46.8 22.9412 46.8C22.2373 46.8 21.6667 47.3821 21.6667 48.1V61.1C21.6667 63.2505 23.3819 65 25.4902 65H39.5098C41.6181 65 43.3333 63.2505 43.3333 61.1V48.1C43.3333 47.3821 42.7626 46.8 42.0588 46.8Z" fill="#D9D9D9"/>
<path d="M52.2549 18.2H25.4957V15.7834C25.4957 15.1541 25.3734 14.5538 25.1532 14.0063C25.5156 13.8664 25.8551 13.6794 26.1656 13.453C26.9542 14.741 28.3558 15.6 29.951 15.6C31.5461 15.6 32.9477 14.741 33.7364 13.453C35.5001 14.7387 37.8991 14.5396 39.4414 12.9997C39.4812 13.0001 39.5378 13.0001 39.5781 12.9997C41.3163 14.735 44.0785 14.7321 45.8136 13H52.2549C52.9587 13 53.5294 12.4179 53.5294 11.7C53.5294 10.9821 52.9587 10.4 52.2549 10.4H47.1106C47.1894 9.84126 47.1433 9.65835 47.1569 7.15C47.1569 4.64113 45.1557 2.6 42.6961 2.6C41.732 2.6 40.8392 2.9146 40.1089 3.44695C38.739 1.20991 35.8229 0.62595 33.7364 2.14695C32.9477 0.85904 31.5461 0 29.951 0C28.3558 0 26.9542 0.85904 26.1656 2.14695C25.4353 1.6146 24.5425 1.3 23.5784 1.3C21.1187 1.3 19.1176 3.34113 19.1176 5.85C19.1324 9.78861 19.0831 9.82618 19.1639 10.4H12.7451C12.0413 10.4 11.4706 10.9821 11.4706 11.7C11.4706 12.4179 12.0413 13 12.7451 13H17.4736C16.9094 13.7752 16.5741 14.7394 16.5741 15.7834V18.2H12.7451C12.0413 18.2 11.4706 18.782 11.4706 19.5C11.4706 20.218 12.0413 20.8 12.7451 20.8H16.5741V23.4567C16.5741 25.7832 17.8166 27.8775 19.8167 28.9219C20.9611 29.5196 21.6721 30.7269 21.6721 32.0728V36.6229C21.6721 37.3409 22.2427 37.9229 22.9466 37.9229C23.6504 37.9229 24.2212 37.3409 24.2212 36.6229V32.0728C24.2212 29.7463 22.9786 27.6522 20.9784 26.6075C19.834 26.0099 19.1231 24.8026 19.1231 23.4567V15.7834C19.1231 14.665 19.9807 13.7552 21.0349 13.7552C22.089 13.7552 22.9466 14.665 22.9466 15.7834V22.4397C22.9466 23.1576 23.5172 23.7397 24.2212 23.7397C24.9249 23.7397 25.4957 23.1576 25.4957 22.4397V20.8H45.8823V23.6231C45.8823 25.6469 45.1096 27.5497 43.7066 28.9808C41.8767 30.8472 40.7843 33.6207 40.7843 36.4V36.6231C40.7843 37.3411 41.355 37.9231 42.0588 37.9231C42.7626 37.9231 43.3333 37.3411 43.3333 36.6231V36.4C43.3333 34.3266 44.167 32.1881 45.509 30.8192C47.3935 28.897 48.4314 26.3414 48.4314 23.6231V20.8H52.2549C52.9587 20.8 53.5294 20.218 53.5294 19.5C53.5294 18.782 52.9587 18.2 52.2549 18.2ZM42.6961 5.2C43.7503 5.2 44.6078 6.07477 44.6078 7.15V9.75C44.6078 10.8252 43.7503 11.7 42.6961 11.7C41.6418 11.7 40.7843 10.8252 40.7843 9.75V7.15C40.7843 6.07477 41.6418 5.2 42.6961 5.2ZM36.3235 3.9C37.3778 3.9 38.2353 4.77477 38.2353 5.85C38.2353 6.19216 38.2353 8.76642 38.2353 9.75C38.2353 10.8252 37.3778 11.7 36.3235 11.7C35.2692 11.7 34.4118 10.8252 34.4118 9.75V5.85C34.4118 4.77477 35.2692 3.9 36.3235 3.9ZM28.0392 4.55C28.0392 3.47477 28.8968 2.6 29.951 2.6C31.0051 2.6 31.8627 3.47477 31.8627 4.55C31.8627 6.84541 31.8627 8.75355 31.8627 11.05C31.8627 12.1252 31.0051 13 29.951 13C28.8968 13 28.0392 12.1252 28.0392 11.05C28.0392 8.75407 28.0392 6.84632 28.0392 4.55ZM21.6667 5.85C21.6667 4.77477 22.5243 3.9 23.5784 3.9C24.6326 3.9 25.4902 4.77477 25.4902 5.85V9.75C25.4902 10.8252 24.6326 11.7 23.5784 11.7C22.511 11.7 21.6667 10.8075 21.6667 9.75V5.85Z" fill="#D9D9D9"/>
<path d="M42.0588 35.3231H22.9412C20.8329 35.3231 19.1176 37.0726 19.1176 39.2231V45.5C19.1176 47.6504 20.8329 49.4 22.9412 49.4H42.0588C44.1671 49.4 45.8823 47.6504 45.8823 45.5V39.2231C45.8823 37.0726 44.1671 35.3231 42.0588 35.3231ZM43.3333 45.5C43.3333 46.2168 42.7616 46.8 42.0588 46.8H22.9412C22.2384 46.8 21.6667 46.2168 21.6667 45.5V39.2231C21.6667 38.5062 22.2384 37.9231 22.9412 37.9231H42.0588C42.7616 37.9231 43.3333 38.5062 43.3333 39.2231V45.5Z" fill="#34CBB0"/>
<path d="M26.7647 41.6H25.4902C24.7863 41.6 24.2157 42.1821 24.2157 42.9C24.2157 43.6178 24.7863 44.2 25.4902 44.2H26.7647C27.4686 44.2 28.0392 43.6178 28.0392 42.9C28.0392 42.1821 27.4686 41.6 26.7647 41.6Z" fill="#34CBB0"/>
<path d="M60.8579 2.59998C59.7456 2.59998 58.735 3.0503 57.9902 3.78051C57.2454 3.0503 56.2348 2.59998 55.1226 2.59998C52.8385 2.59998 50.9804 4.49525 50.9804 6.82498V24.375C50.9804 26.7047 52.8385 28.6 55.1226 28.6C56.2348 28.6 57.2454 28.1497 57.9902 27.4194C58.735 28.1497 59.7456 28.6 60.8579 28.6C63.1419 28.6 65 26.7047 65 24.375V6.82498C65 4.49525 63.1419 2.59998 60.8579 2.59998ZM55.1226 26C54.244 26 53.5294 25.2711 53.5294 24.375V6.82498C53.5294 5.92889 54.244 5.19998 55.1226 5.19998C56.0011 5.19998 56.7157 5.92889 56.7157 6.82498V24.375C56.7157 25.2711 56.0011 26 55.1226 26ZM62.451 24.375C62.451 25.2711 61.7364 26 60.8579 26C59.9793 26 59.2647 25.2711 59.2647 24.375V6.82498C59.2647 5.92889 59.9793 5.19998 60.8579 5.19998C61.7364 5.19998 62.451 5.92889 62.451 6.82498V24.375Z" fill="#34CBB0"/>
<path d="M9.87745 2.59998C8.76519 2.59998 7.75463 3.0503 7.0098 3.78051C6.26498 3.0503 5.25442 2.59998 4.14216 2.59998C1.85811 2.59998 0 4.49525 0 6.82498V24.375C0 26.7047 1.85811 28.6 4.14216 28.6C5.25442 28.6 6.26498 28.1497 7.0098 27.4194C7.75463 28.1497 8.76519 28.6 9.87745 28.6C12.1615 28.6 14.0196 26.7047 14.0196 24.375V6.82498C14.0196 4.49525 12.1615 2.59998 9.87745 2.59998ZM4.14216 26C3.26364 26 2.54902 25.2711 2.54902 24.375V6.82498C2.54902 5.92889 3.26364 5.19998 4.14216 5.19998C5.02068 5.19998 5.73529 5.92889 5.73529 6.82498V24.375C5.73529 25.2711 5.02068 26 4.14216 26ZM11.4706 24.375C11.4706 25.2711 10.756 26 9.87745 26C8.99893 26 8.28431 25.2711 8.28431 24.375V6.82498C8.28431 5.92889 8.99893 5.19998 9.87745 5.19998C10.756 5.19998 11.4706 5.92889 11.4706 6.82498V24.375Z" fill="#34CBB0"/>
</g>
<defs>
<clipPath id="clip0_447_91">
<rect width="65" height="65" fill="white"/>
</clipPath>
</defs>
</svg>
