<svg width="45" height="45" viewBox="0 0 45 45" fill="none" xmlns="http://www.w3.org/2000/svg">
<path d="M44.978 22.4925C44.978 25.647 44.9145 28.8106 44.9962 31.9652C45.1322 37.5491 41.6221 41.8639 37.1506 43.7857C35.3548 44.5562 33.4682 44.9641 31.5182 44.9641C25.4141 44.9731 19.3009 45.0547 13.1968 44.9369C8.59834 44.8462 4.81616 42.9245 2.10424 39.1354C0.680248 37.1412 0 34.875 0 32.4184C0 25.919 0 19.4286 0 12.9291C0 7.62625 2.58494 3.91876 7.17435 1.50753C9.16975 0.465079 11.3375 0.0209045 13.5959 0.0118397C19.5186 0.0118397 25.4504 -0.0244194 31.3731 0.0299693C35.9715 0.0662284 39.8081 1.8248 42.638 5.52323C44.2162 7.58999 44.978 9.96497 44.978 12.5756C44.978 15.8752 44.978 19.1838 44.978 22.4925ZM3.34682 22.4925C3.34682 25.8193 3.34682 29.137 3.34682 32.4637C3.34682 33.9504 3.69148 35.3463 4.46243 36.6064C6.48504 39.915 9.54162 41.5285 13.3329 41.592C19.4188 41.6826 25.5139 41.6282 31.6089 41.6101C33.1054 41.6101 34.5566 41.3019 35.9081 40.6583C39.5905 38.8997 41.6494 36.0987 41.6312 31.8927C41.5949 25.4567 41.6221 19.0207 41.6221 12.5847C41.6221 10.7627 41.1052 9.09475 40.0258 7.62625C37.9397 4.80711 35.0555 3.4202 31.6089 3.38394C25.532 3.31142 19.4551 3.35674 13.3782 3.36581C12.0812 3.36581 10.8296 3.62869 9.61418 4.08193C6.27643 5.3238 3.17449 8.46928 3.31961 13.1014C3.42845 16.2378 3.34682 19.3651 3.34682 22.4925Z" fill="white"/>
<path d="M24.2676 34.583C17.9688 34.583 12.8906 29.5635 12.8809 23.3135C12.8711 17.1611 17.9883 12.1221 24.2481 12.1221C30.5274 12.1123 35.625 17.1416 35.6348 23.3428C35.6348 29.5342 30.5469 34.5733 24.2676 34.583ZM24.2676 30.9697C28.5547 30.9697 32.0313 27.542 32.0215 23.3233C32.0117 19.1436 28.5352 15.7256 24.2676 15.7256C19.9805 15.7256 16.4844 19.1338 16.4844 23.3428C16.4942 27.5615 19.9805 30.9795 24.2676 30.9697Z" fill="white"/>
<path d="M36.9531 8.7041C38.2715 8.7041 39.3457 9.82715 39.3457 11.2041C39.3359 12.5811 38.252 13.6943 36.9336 13.6846C35.6348 13.6748 34.5703 12.5615 34.5703 11.2139C34.5606 9.83691 35.6348 8.7041 36.9531 8.7041Z" fill="white"/>
</svg>
