<svg width="55" height="55" viewBox="0 0 55 55" fill="none" xmlns="http://www.w3.org/2000/svg">
<g clip-path="url(#clip0_243_28)">
<path d="M45.375 0H9.625C4.30926 0 0 4.30926 0 9.625V45.375C0 50.6907 4.30926 55 9.625 55H45.375C50.6907 55 55 50.6907 55 45.375V9.625C55 4.30926 50.6907 0 45.375 0Z" fill="black"/>
<path d="M8.26719 16.9898H14.8672C15.0052 16.9896 15.1399 17.0314 15.2536 17.1097C15.3672 17.188 15.4542 17.2991 15.5031 17.4281C16.2336 19.3101 19.2672 26.675 22.043 27.2765C24.1055 27.2765 23.375 17.4796 20.7539 17.4796C20.0664 17.4796 21.9742 16.2593 22.1031 16.2078C24.5389 15.5401 27.1095 15.5401 29.5453 16.2078C30.8602 16.7578 31.0836 18.296 31.118 19.6023C31.1523 20.9085 29.657 26.4773 31.625 27.0789C34.2031 27.8695 37.5203 19.7828 38.2938 17.7976C38.344 17.6702 38.4317 17.561 38.5452 17.4843C38.6587 17.4076 38.7927 17.367 38.9297 17.3679H46.2773C46.3909 17.3676 46.5028 17.3953 46.603 17.4488C46.7031 17.5022 46.7886 17.5796 46.8515 17.6741C46.9145 17.7685 46.9531 17.8771 46.9639 17.9902C46.9747 18.1032 46.9573 18.2172 46.9133 18.3218C45.3998 21.7746 43.5852 25.0874 41.4906 28.2218C41.3126 28.4805 41.229 28.7926 41.2541 29.1056C41.2791 29.4187 41.4112 29.7135 41.6281 29.9406C43.8281 32.2953 49.8438 38.964 46.4063 38.964H38.9898C38.7982 38.9645 38.6086 38.9241 38.4337 38.8456C38.2589 38.767 38.1028 38.6521 37.9758 38.5085C36.8242 37.2367 33.4727 33.696 31.9602 33.9796C30.7055 34.2117 30.5852 36.3429 30.6453 37.7351C30.6643 38.0943 30.5417 38.4466 30.304 38.7165C30.0662 38.9864 29.7322 39.1524 29.3734 39.1789C28.0586 39.2562 26.2625 39.2906 26.0992 39.282C20.857 38.9468 17.7547 35.4492 14.7898 31.5476C11.6842 27.4112 9.26154 22.8038 7.61407 17.9007C7.58039 17.797 7.57157 17.6868 7.58831 17.579C7.60505 17.4712 7.64689 17.3689 7.71044 17.2802C7.774 17.1916 7.8575 17.1191 7.95421 17.0687C8.05092 17.0182 8.15813 16.9912 8.26719 16.9898Z" fill="white"/>
</g>
<defs>
<clipPath id="clip0_243_28">
<rect width="55" height="55" fill="white"/>
</clipPath>
</defs>
</svg>
